<svg width="20" height="20" viewBox="0 0 20 20" fill="none" xmlns="http://www.w3.org/2000/svg">
<path d="M14.5 0.825001C12.76 0.825001 11.09 1.635 10 2.915C8.91 1.635 7.24 0.825001 5.5 0.825001C2.42 0.825001 0 3.245 0 6.325C0 10.105 3.4 13.185 8.55 17.865L10 19.175L11.45 17.855C16.6 13.185 20 10.105 20 6.325C20 3.245 17.58 0.825001 14.5 0.825001ZM10.1 16.375L10 16.475L9.9 16.375C5.14 12.065 2 9.215 2 6.325C2 4.325 3.5 2.825 5.5 2.825C7.04 2.825 8.54 3.815 9.07 5.185H10.94C11.46 3.815 12.96 2.825 14.5 2.825C16.5 2.825 18 4.325 18 6.325C18 9.215 14.86 12.065 10.1 16.375Z" fill="#0D6EFD"/>
</svg>
