<svg width="24" height="24" viewBox="0 0 24 24" fill="none" xmlns="http://www.w3.org/2000/svg">
<path fill-rule="evenodd" clip-rule="evenodd" d="M7.29989 18.7997C6.14491 18.7997 5.21043 19.7447 5.21043 20.8997C5.21043 22.0546 6.14491 22.9996 7.29989 22.9996C8.45487 22.9996 9.39985 22.0546 9.39985 20.8997C9.39985 19.7447 8.45487 18.7997 7.29989 18.7997ZM1 3.04998C1 3.62747 1.47249 4.09996 2.04998 4.09996H3.09996L6.8799 12.0693L5.46242 14.6313C4.69593 16.0383 5.70392 17.7497 7.29989 17.7497H18.8497C19.4272 17.7497 19.8997 17.2772 19.8997 16.6997C19.8997 16.1223 19.4272 15.6498 18.8497 15.6498H7.29989L8.45487 13.5498H16.2772C17.0647 13.5498 17.7577 13.1193 18.1147 12.4683L21.8736 5.65394C22.2621 4.96095 21.7581 4.09996 20.9601 4.09996H5.42042L4.71693 2.59849C4.54894 2.231 4.17094 2 3.77195 2H2.04998C1.47249 2 1 2.47249 1 3.04998ZM17.7997 18.7997C16.6447 18.7997 15.7102 19.7447 15.7102 20.8997C15.7102 22.0546 16.6447 22.9996 17.7997 22.9996C18.9547 22.9996 19.8997 22.0546 19.8997 20.8997C19.8997 19.7447 18.9547 18.7997 17.7997 18.7997Z" fill="#8B96A5"/>
</svg>
