<svg width="20" height="20" viewBox="0 0 20 20" fill="none" xmlns="http://www.w3.org/2000/svg">
<path d="M14.1675 10.9166C14.855 10.9166 15.46 10.5408 15.7716 9.97248L19.0533 4.02331C19.3925 3.41831 18.9525 2.66665 18.2558 2.66665H4.68912L3.82746 0.833313H0.829956V2.66665H2.66329L5.96329 9.62415L4.72579 11.8608C4.05662 13.0891 4.93662 14.5833 6.32996 14.5833H17.33V12.75H6.32996L7.33829 10.9166H14.1675ZM5.55996 4.49998H16.6975L14.1675 9.08331H7.73246L5.55996 4.49998ZM6.32996 15.5C5.32162 15.5 4.50579 16.325 4.50579 17.3333C4.50579 18.3416 5.32162 19.1666 6.32996 19.1666C7.33829 19.1666 8.16329 18.3416 8.16329 17.3333C8.16329 16.325 7.33829 15.5 6.32996 15.5ZM15.4966 15.5C14.4883 15.5 13.6725 16.325 13.6725 17.3333C13.6725 18.3416 14.4883 19.1666 15.4966 19.1666C16.505 19.1666 17.33 18.3416 17.33 17.3333C17.33 16.325 16.505 15.5 15.4966 15.5Z" fill="#0D6EFD"/>
</svg>
