<svg width="20" height="16" viewBox="0 0 20 16" fill="none" xmlns="http://www.w3.org/2000/svg">
<path d="M18.3333 5.90833H14.3417L10.6917 0.441667C10.5333 0.208334 10.2667 0.0916672 10 0.0916672C9.73334 0.0916672 9.46668 0.208334 9.30834 0.450001L5.65834 5.90833H1.66668C1.20834 5.90833 0.833344 6.28333 0.833344 6.74167C0.833344 6.81667 0.841677 6.89167 0.866677 6.96667L2.98334 14.6917C3.17501 15.3917 3.81668 15.9083 4.58334 15.9083H15.4167C16.1833 15.9083 16.825 15.3917 17.025 14.6917L19.1417 6.96667L19.1667 6.74167C19.1667 6.28333 18.7917 5.90833 18.3333 5.90833ZM10 2.40833L12.3333 5.90833H7.66668L10 2.40833ZM15.4167 14.2417L4.59168 14.25L2.75834 7.575H17.25L15.4167 14.2417ZM10 9.24167C9.08334 9.24167 8.33334 9.99167 8.33334 10.9083C8.33334 11.825 9.08334 12.575 10 12.575C10.9167 12.575 11.6667 11.825 11.6667 10.9083C11.6667 9.99167 10.9167 9.24167 10 9.24167Z" fill="#8B96A5"/>
</svg>
